<?xml version="1.0" encoding="utf-8"?>
<!-- Generator: Adobe Illustrator 28.0.0, SVG Export Plug-In . SVG Version: 6.00 Build 0)  -->
<svg version="1.1" id="Layer_1" xmlns="http://www.w3.org/2000/svg" xmlns:xlink="http://www.w3.org/1999/xlink" x="0px" y="0px"
	 viewBox="0 0 215 54" style="enable-background:new 0 0 215 54;" xml:space="preserve">
<style type="text/css">
	.st0{clip-path:url(#SVGID_00000058557846476778990760000009305699810781222832_);}
	.st1{clip-path:url(#SVGID_00000024695685475628432710000002230379658527712174_);}
	.st2{clip-path:url(#SVGID_00000025413430018447865480000012411666366681517973_);}
	.st3{fill:#C1B4B4;}
	.st4{fill-rule:evenodd;clip-rule:evenodd;fill:#C1B4B4;}
	.st5{clip-path:url(#SVGID_00000024695685475628432710000002230379658527712174_);fill:#FFFFFF;}
	.st6{fill:#FFFFFF;}
	.st7{opacity:0.3;}
	.st8{clip-path:url(#SVGID_00000116195567241408994720000016277941257797171094_);fill:#FFFFFF;}
	.st9{opacity:0.6;}
	.st10{clip-path:url(#SVGID_00000081648320400058697970000015385590655223413400_);fill:#FFFFFF;}
	.st11{clip-path:url(#SVGID_00000024695685475628432710000002230379658527712174_);fill:#465361;}
	.st12{fill:#465361;}
</style>
<g>
	<defs>
		<rect id="SVGID_1_" y="0" width="215" height="54"/>
	</defs>
	<clipPath id="SVGID_00000042733630297770045920000010811646981620120509_">
		<use xlink:href="#SVGID_1_"  style="overflow:visible;"/>
	</clipPath>
	<g style="clip-path:url(#SVGID_00000042733630297770045920000010811646981620120509_);">
		<g>
			<defs>
				<rect id="SVGID_00000183233150205175421500000013806844379740865420_" x="-0.2" y="-0.3" width="216.2" height="54.3"/>
			</defs>
			<clipPath id="SVGID_00000140717504107347871230000012541397740966417319_">
				<use xlink:href="#SVGID_00000183233150205175421500000013806844379740865420_"  style="overflow:visible;"/>
			</clipPath>
			<g style="clip-path:url(#SVGID_00000140717504107347871230000012541397740966417319_);">
				<g>
					<defs>
						<rect id="SVGID_00000153694544703888936820000007064919800355332022_" x="-0.2" y="0.1" width="216.2" height="54.3"/>
					</defs>
					<clipPath id="SVGID_00000011715639595531944830000012821581366731637671_">
						<use xlink:href="#SVGID_00000153694544703888936820000007064919800355332022_"  style="overflow:visible;"/>
					</clipPath>
					<g style="clip-path:url(#SVGID_00000011715639595531944830000012821581366731637671_);">
						<path class="st3" d="M110.7-59.8h-7.6l-8.2,11.4v-11.4H88v24.5h6.8v-11.4l8.2,11.4h7.6l-9.2-12.3L110.7-59.8z"/>
						<path class="st3" d="M22.7-6.4h6.7v-13.5L39.9-6.4h5.9v-24.5h-6.7v13l-10.1-13h-6.3C22.7-30.9,22.7-6.4,22.7-6.4z"/>
						<path class="st3" d="M54.9-6.4h6.8V-25h7.3v-5.9H47.6v5.9h7.3V-6.4z"/>
						<path class="st3" d="M17.8-48.1c2.2-0.9,3.8-2.6,3.8-5.4v-0.1c0-1.7-0.6-3-1.6-3.9c-1.4-1.4-3.6-2.2-6.7-2.2H1.2h-1.4v5.4
							l1.4,0.2v13.2l-1.4,0.3v5.4h13.6c5.8,0,9.3-2.5,9.3-6.7v-0.1C22.6-45.4,20.7-47.1,17.8-48.1 M7.9-54.3h3.9
							c2,0,3.1,0.8,3.1,2.1v0.1c0,1.4-1.1,2.1-3.2,2.1H7.9V-54.3z M15.8-43c0,1.4-1.2,2.2-3.2,2.2H7.9v-4.4h4.7
							C14.8-45.2,15.8-44.4,15.8-43L15.8-43z"/>
						<path class="st3" d="M20.3-12.1H8V-16H18v-5.3H8v-3.7h11.3l1.9-5.8H3.3l0,0h-3.5v5.4l1.4,0.2V-12l-1.4,0.2v5.4h3.5l0,0h17
							V-12.1z"/>
						<path class="st3" d="M24.2-35.2h14.3l2-5.9h-9.5v-18.6h-6.8V-35.2z"/>
						<path class="st3" d="M77.9-34.7c5.4,0,8.6-0.3,8.6-0.3l-1.9-5.8c0,0-3.9,0-6.5,0c-3.4,0-5.8-2.9-5.8-6.5v-0.1
							c0-3.6,2.4-6.5,5.8-6.5c2.3,0,6.5,0,6.5,0l1.9-5.7c0,0-3.3-0.5-8.3-0.5c-7.5,0-13,5.6-13,12.8v0.1
							C65.2-40,70.8-34.7,77.9-34.7"/>
						<path class="st4" d="M93.6-6.4h6.8v-7.4h3l4.9,7.4h7.8l-5.8-8.5c3-1.3,5-3.8,5-7.5v-0.1c0-2.4-0.7-4.3-2.2-5.7
							c-1.6-1.7-4.2-2.7-7.9-2.7H93.6V-6.4L93.6-6.4z M100.5-19.1v-5.9h4.4c2.3,0,3.7,1,3.7,2.9v0.1c0,1.8-1.3,2.9-3.6,2.9H100.5
							L100.5-19.1z"/>
						<path class="st4" d="M117.7-6.4h6.8v-7h3.3c6.1,0,10.6-3,10.6-8.8v-0.1c0-5.4-4-8.6-10.2-8.6h-10.6L117.7-6.4L117.7-6.4z
							 M124.4-18.7v-6.5h3.2c2.4,0,3.9,1.1,3.9,3.2v0.1c0,1.9-1.5,3.2-3.9,3.2L124.4-18.7L124.4-18.7z"/>
						<path class="st4" d="M140.3-6.4h6.8v-7.4h3l4.9,7.4h7.8l-5.8-8.5c3-1.3,5-3.8,5-7.5v-0.1c0-2.4-0.7-4.3-2.2-5.7
							c-1.6-1.7-4.2-2.7-7.9-2.7h-11.6L140.3-6.4L140.3-6.4z M147-19.1v-5.9h4.4c2.3,0,3.7,1,3.7,2.9v0.1c0,1.8-1.3,2.9-3.6,2.9H147
							z"/>
						<path class="st3" d="M171.1-30.9h-6.8v24.5h6.8V-30.9z"/>
						<path class="st3" d="M91.2-12.1H78.9V-16h10.1v-5.3H78.9v-3.7h11.3l1.9-5.8H74.2l0,0h-3.5v5.4l1.4,0.2V-12l-1.4,0.2v5.4h3.5
							l0,0h17V-12.1z"/>
						<path class="st3" d="M215.3-12.1h-12.5V-16h10.1v-5.3h-10.1v-3.7h11.3l1.9-5.8h-17.8l0,0h-3.5v5.4l1.4,0.2V-12l-1.4,0.2v5.4
							h3.5l0,0h17v-5.7H215.3z"/>
						<path class="st3" d="M183.5-5.9c5.9,0,10-3,10-8l0,0c0-4.6-3.5-6.4-9.2-7.6c-3.4-0.8-4.2-1.3-4.2-2.4v-0.1
							c0-0.9,0.8-1.6,2.4-1.6c2.2,0,8.5,0.3,8.5,0.3l1.8-5.4c0,0-6-0.4-10.2-0.4c-5.9,0-9.5,3.3-9.5,7.8v0.1c0,5,4,6.5,9.3,7.7
							c3.3,0.8,4.1,1.3,4.1,2.3v0.1c0,1-1,1.7-2.8,1.7c-2.8,0-9.2-0.2-9.2-0.2L173-6.2C172.9-6.4,179.2-5.9,183.5-5.9"/>
						<path class="st3" d="M50.1-45.1l2.9-9.7h0.9l2.9,9.7H50.1z M58.6-59.8H48.4l-8.1,24.5h6.8l1.3-4.4h10.3l1.3,4.4h6.8L58.6-59.8
							z"/>
					</g>
				</g>
			</g>
			<polygon style="clip-path:url(#SVGID_00000140717504107347871230000012541397740966417319_);fill:#FFFFFF;" points="107.1,2.1 
				99.7,2.1 91.8,13.1 91.8,2.1 85.3,2.1 85.3,25.6 91.8,25.6 91.8,14.8 99.7,25.6 107,25.6 98.3,13.9 			"/>
			<polygon style="clip-path:url(#SVGID_00000140717504107347871230000012541397740966417319_);fill:#FFFFFF;" points="22.7,53.3 
				29.2,53.3 29.2,40.4 39.2,53.3 45,53.3 45,29.8 38.5,29.8 38.5,42.2 28.9,29.8 22.7,29.8 			"/>
			<polygon style="clip-path:url(#SVGID_00000140717504107347871230000012541397740966417319_);fill:#FFFFFF;" points="53.6,53.3 
				60.1,53.3 60.1,35.5 67.2,35.5 67.2,29.8 46.6,29.8 46.6,35.5 53.6,35.5 			"/>
			<g style="clip-path:url(#SVGID_00000140717504107347871230000012541397740966417319_);">
				<path class="st6" d="M16.2,18.3c0,1.4-1.1,2.1-3.1,2.1H8.5v-4.3H13C15.2,16.1,16.2,16.9,16.2,18.3L16.2,18.3z M8.5,7.3h3.7
					c1.9,0,2.9,0.7,2.9,2v0.1c0,1.4-1.1,2-3.1,2H8.5V7.3z M18,13.4c2.1-0.9,3.6-2.5,3.6-5.2V8c0-1.6-0.6-2.8-1.5-3.8
					c-1.4-1.3-3.4-2.1-6.4-2.1H2.1l0,0H0.8v5.2l1.3,0.2v12.7l-1.3,0.2v5.2h13c5.6,0,8.8-2.4,8.8-6.4v-0.1
					C22.6,15.9,20.8,14.3,18,13.4"/>
			</g>
			<polygon style="clip-path:url(#SVGID_00000140717504107347871230000012541397740966417319_);fill:#FFFFFF;" points="4.2,29.8 
				4.2,29.8 0.8,29.8 0.8,35 2.1,35.2 2.1,47.9 0.8,48.1 0.8,53.3 4.2,53.3 4.2,53.3 20.5,53.3 20.5,47.8 8.6,47.8 8.6,44 18.2,44 
				18.2,38.9 8.6,38.9 8.6,35.3 19.4,35.3 21.2,29.8 			"/>
			<polygon style="clip-path:url(#SVGID_00000140717504107347871230000012541397740966417319_);fill:#FFFFFF;" points="24.2,25.6 
				37.9,25.6 39.8,19.9 30.8,19.9 30.8,2.1 24.2,2.1 			"/>
			<g style="clip-path:url(#SVGID_00000140717504107347871230000012541397740966417319_);">
				<path class="st6" d="M75.5,26.1c5.2,0,8.2-0.3,8.2-0.3L82,20.2c0,0-3.8,0-6.2,0c-3.3,0-5.6-2.7-5.6-6.2v-0.1
					c0-3.4,2.3-6.2,5.6-6.2c2.2,0,6.2,0,6.2,0l1.8-5.5c0,0-3.2-0.4-8-0.4C68.6,1.7,63.4,7,63.4,14v0.1C63.4,21,68.8,26.1,75.5,26.1"
					/>
				<path class="st6" d="M97.2,41v-5.6h4.2c2.2,0,3.5,0.9,3.5,2.8v0.1c0,1.7-1.3,2.8-3.5,2.8L97.2,41L97.2,41z M90.6,53.3h6.5v-7.1
					h2.8h0.1l4.7,7.1h7.5l-5.6-8.1c2.9-1.2,4.8-3.6,4.8-7.2v-0.1c0-2.3-0.7-4.1-2.1-5.4c-1.6-1.6-4-2.5-7.6-2.5H90.6V53.3z"/>
				<path class="st6" d="M120.2,41.4v-6.1h3c2.3,0,3.7,1.1,3.7,3.1v0.1c0,1.8-1.4,3-3.7,3L120.2,41.4L120.2,41.4z M113.7,53.3h6.5
					v-6.7h3.2c5.8,0,10.2-2.9,10.2-8.4V38c0-5.2-3.8-8.2-9.8-8.2h-10.1v23.5H113.7z"/>
				<path class="st6" d="M141.8,41v-5.6h4.2c2.2,0,3.5,0.9,3.5,2.8v0.1c0,1.7-1.3,2.8-3.5,2.8L141.8,41L141.8,41z M135.3,53.3h6.5
					v-7.1h2.8h0.1l4.7,7.1h7.5l-5.6-8.1c2.9-1.2,4.8-3.6,4.8-7.2v-0.1c0-2.3-0.7-4.1-2.1-5.4c-1.6-1.6-4-2.5-7.6-2.5h-11.2
					L135.3,53.3L135.3,53.3z"/>
			</g>
			
				<rect x="158.3" y="29.8" style="clip-path:url(#SVGID_00000140717504107347871230000012541397740966417319_);fill:#FFFFFF;" width="6.5" height="23.5"/>
			<polygon style="clip-path:url(#SVGID_00000140717504107347871230000012541397740966417319_);fill:#FFFFFF;" points="88.4,47.8 
				76.4,47.8 76.4,44 86.1,44 86.1,38.9 76.4,38.9 76.4,35.3 87.3,35.3 89.1,29.8 72,29.8 72,29.8 68.7,29.8 68.7,35 70,35.2 
				70,47.9 68.7,48.1 68.7,53.3 72,53.3 72,53.3 88.4,53.3 			"/>
			<polygon style="clip-path:url(#SVGID_00000140717504107347871230000012541397740966417319_);fill:#FFFFFF;" points="207.2,47.8 
				195.2,47.8 195.2,44 204.9,44 204.9,38.9 195.2,38.9 195.2,35.3 206.1,35.3 207.6,29.8 190.9,29.8 190.9,29.8 187.5,29.8 
				187.5,35 188.8,35.2 188.8,47.9 187.5,48.1 187.5,53.3 190.9,53.3 190.9,53.3 207.2,53.3 			"/>
			<g style="clip-path:url(#SVGID_00000140717504107347871230000012541397740966417319_);">
				<path class="st6" d="M176.7,53.7c5.7,0,9.5-2.8,9.5-7.6v-0.1c0-4.4-3.3-6.1-8.7-7.3c-3.2-0.7-4-1.2-4-2.3v0
					c0-0.8,0.8-1.5,2.3-1.5c2.1,0,8.1,0.2,8.1,0.2l1.7-5.2c0,0-5.7-0.4-9.8-0.4c-5.6,0-9.1,3.1-9.1,7.5V37c0,4.8,3.8,6.2,8.8,7.3
					c3.2,0.7,3.9,1.3,3.9,2.2v0.1c0,1-0.9,1.6-2.7,1.6c-2.7,0-8.7-0.2-8.7-0.2l-1.7,5.2C166.6,53.3,172.6,53.7,176.7,53.7"/>
			</g>
			<path style="clip-path:url(#SVGID_00000140717504107347871230000012541397740966417319_);fill:#FFFFFF;" d="M57.2,2.1h-9.9
				l-7.7,23.5h6.4l1.3-4.2h9.8l1.3,4.2H65L57.2,2.1z M49,16.2l2.8-9.3h0.9l2.8,9.3H49z"/>
			<polygon style="clip-path:url(#SVGID_00000140717504107347871230000012541397740966417319_);fill:#FFFFFF;" points="176.2,6.9 
				109.4,6.9 104.3,13.9 109.4,20.8 176.2,20.8 			"/>
			<g style="clip-path:url(#SVGID_00000140717504107347871230000012541397740966417319_);">
				<g class="st7">
					<g>
						<g>
							<g>
								<defs>
									<rect id="SVGID_00000031905157212225416010000012553677815450925237_" x="161.6" y="4.8" width="55.4" height="16.3"/>
								</defs>
								<clipPath id="SVGID_00000124884236622356969410000007804480900571584421_">
									<use xlink:href="#SVGID_00000031905157212225416010000012553677815450925237_"  style="overflow:visible;"/>
								</clipPath>
								<polygon style="clip-path:url(#SVGID_00000124884236622356969410000007804480900571584421_);fill:#FFFFFF;" points="
									213.7,6.9 170.5,6.9 166.2,13.9 166.8,20.8 210,20.8 								"/>
							</g>
						</g>
					</g>
				</g>
				<g class="st9">
					<g>
						<g>
							<g>
								<defs>
									<rect id="SVGID_00000157282729265743643490000008816514645632925105_" x="158.5" y="4.8" width="55.4" height="16.3"/>
								</defs>
								<clipPath id="SVGID_00000077318802268258057100000008038123903045154979_">
									<use xlink:href="#SVGID_00000157282729265743643490000008816514645632925105_"  style="overflow:visible;"/>
								</clipPath>
								<polygon style="clip-path:url(#SVGID_00000077318802268258057100000008038123903045154979_);fill:#FFFFFF;" points="
									210.6,6.9 167.3,6.9 163.1,13.9 163.5,20.8 206.9,20.8 								"/>
							</g>
						</g>
					</g>
				</g>
			</g>
			<polygon style="clip-path:url(#SVGID_00000140717504107347871230000012541397740966417319_);fill:#FFFFFF;" points="160.4,20.8 
				160,13.9 164.1,6.9 207.5,6.9 203.8,20.8 			"/>
			<polygon style="clip-path:url(#SVGID_00000140717504107347871230000012541397740966417319_);fill:#465361;" points="110.5,10.7 
				112.4,10.7 113.7,14.6 115,10.6 116.6,10.6 117.9,14.6 119.1,10.7 121,10.7 118.7,17.5 117.1,17.5 115.8,13.6 114.4,17.5 
				112.7,17.5 			"/>
			<polygon style="clip-path:url(#SVGID_00000140717504107347871230000012541397740966417319_);fill:#465361;" points="121.7,10.7 
				127.1,10.7 127.1,12.3 123.5,12.3 123.5,13.3 126.7,13.3 126.7,14.8 123.5,14.8 123.5,15.9 127.1,15.9 127.1,17.4 121.7,17.4 			
				"/>
			<path style="clip-path:url(#SVGID_00000140717504107347871230000012541397740966417319_);fill:#465361;" d="M132.1,14.8l-0.7-1.9
				l-0.8,1.9H132.1z M130.4,10.6h1.8l2.8,6.7h-2l-0.5-1.2h-2.6l-0.5,1.2h-1.9L130.4,10.6z"/>
			<polygon style="clip-path:url(#SVGID_00000140717504107347871230000012541397740966417319_);fill:#465361;" points="135.8,10.7 
				137.6,10.7 137.6,15.8 140.8,15.8 140.8,17.4 135.8,17.4 			"/>
			<polygon style="clip-path:url(#SVGID_00000140717504107347871230000012541397740966417319_);fill:#465361;" points="142.3,12.4 
				140.3,12.4 140.3,10.7 146.2,10.7 146.2,12.4 144.2,12.4 144.2,17.4 142.3,17.4 			"/>
			<polygon style="clip-path:url(#SVGID_00000140717504107347871230000012541397740966417319_);fill:#465361;" points="147,10.7 
				148.9,10.7 148.9,13.3 151.3,13.3 151.3,10.7 153.2,10.7 153.2,17.4 151.3,17.4 151.3,14.9 148.9,14.9 148.9,17.4 147,17.4 			
				"/>
			<polygon style="clip-path:url(#SVGID_00000140717504107347871230000012541397740966417319_);fill:#465361;" points="157.4,10.7 
				162.2,10.7 162.2,11.3 158.1,11.3 158.1,13.8 161.7,13.8 161.7,14.5 158.1,14.5 158.1,17.4 157.4,17.4 			"/>
			<g style="clip-path:url(#SVGID_00000140717504107347871230000012541397740966417319_);">
				<path class="st12" d="M169.3,14.1L169.3,14.1c0-1.5-1.1-2.8-2.6-2.8c-1.5,0-2.6,1.2-2.6,2.7l0,0c0,1.5,1.1,2.8,2.6,2.8
					C168.2,16.9,169.3,15.6,169.3,14.1 M163.2,14.1L163.2,14.1c0-1.9,1.4-3.5,3.4-3.5c2,0,3.4,1.6,3.4,3.4l0,0
					c0,1.8-1.4,3.5-3.4,3.5C164.5,17.6,163.2,16,163.2,14.1"/>
				<path class="st12" d="M174.5,14.2c1,0,1.7-0.5,1.7-1.4l0,0c0-0.8-0.6-1.3-1.7-1.3h-2.1v2.7H174.5z M171.7,10.7h2.9
					c0.8,0,1.5,0.2,1.9,0.7c0.3,0.3,0.5,0.8,0.5,1.3l0,0c0,1.1-0.8,1.8-1.8,1.9l2.1,2.7h-0.9l-1.9-2.6l0,0h-1.9v2.6h-0.8L171.7,10.7
					L171.7,10.7z"/>
			</g>
			<polygon style="clip-path:url(#SVGID_00000140717504107347871230000012541397740966417319_);fill:#465361;" points="180.9,10.7 
				182.7,10.7 182.7,15.8 186.1,15.8 186.1,17.4 180.9,17.4 			"/>
			
				<rect x="186.9" y="10.7" style="clip-path:url(#SVGID_00000140717504107347871230000012541397740966417319_);fill:#465361;" width="1.9" height="6.7"/>
			<polygon style="clip-path:url(#SVGID_00000140717504107347871230000012541397740966417319_);fill:#465361;" points="190,10.7 
				195.3,10.7 195.3,12.4 191.8,12.4 191.8,13.5 195,13.5 195,15.1 191.8,15.1 191.8,17.4 190,17.4 			"/>
			<polygon style="clip-path:url(#SVGID_00000140717504107347871230000012541397740966417319_);fill:#465361;" points="196.2,10.7 
				201.6,10.7 201.6,12.3 198,12.3 198,13.3 201.2,13.3 201.2,14.8 198,14.8 198,15.9 201.6,15.9 201.6,17.4 196.2,17.4 			"/>
		</g>
	</g>
</g>
</svg>
